<svg xmlns="http://www.w3.org/2000/svg" viewBox="0 0 256 256" role="img" aria-label="Compass yin yang">
  <defs>
    <clipPath id="dial"><circle cx="128" cy="128" r="84"/></clipPath>
    <filter id="shadow" x="-30%" y="-30%" width="160%" height="160%">
      <feDropShadow dx="0" dy="5" stdDeviation="7" flood-color="#0b3f2c" flood-opacity=".2"/>
    </filter>
  </defs>
  <g fill="none" stroke-linejoin="round" filter="url(#shadow)">
    <path d="M128 12 145 42 128 36 111 42Z" fill="#d9a83e" stroke="#123b2d" stroke-width="4"/>
    <path d="M244 128 214 145 220 128 214 111Z" fill="#f1c766" stroke="#123b2d" stroke-width="4"/>
    <path d="M128 244 111 214 128 220 145 214Z" fill="#d9a83e" stroke="#123b2d" stroke-width="4"/>
    <path d="M12 128 42 111 36 128 42 145Z" fill="#f1c766" stroke="#123b2d" stroke-width="4"/>
    <circle cx="128" cy="128" r="98" fill="#f7fff9" stroke="#123b2d" stroke-width="7"/>
    <circle cx="128" cy="128" r="88" stroke="#d9a83e" stroke-width="3"/>
  </g>
  <g clip-path="url(#dial)">
    <circle cx="128" cy="128" r="84" fill="#f3c65d"/>
    <path d="M128 44a42 42 0 0 1 0 84 42 42 0 0 0 0 84 84 84 0 0 1 0-168Z" fill="#123b2d"/>
    <circle cx="128" cy="86" r="13" fill="#f3c65d"/>
    <circle cx="128" cy="170" r="13" fill="#123b2d"/>
  </g>
  <path d="M128 62 139 118 128 128 117 118Z" fill="#fff8dd" stroke="#123b2d" stroke-width="3"/>
  <path d="M128 194 117 138 128 128 139 138Z" fill="#d9a83e" stroke="#123b2d" stroke-width="3"/>
  <circle cx="128" cy="128" r="6" fill="#123b2d"/>
</svg>
